<mxfile host="app.diagrams.net" modified="2023-06-05T11:30:28.222Z" agent="Mozilla/5.0 (Windows NT 10.0; Win64; x64; rv:102.0) Gecko/20100101 Firefox/102.0" version="21.3.7" etag="u7RjSmHK6i4CpEJA4Xn0" type="github">
  <diagram name="Page-1" id="XIC2va0q06jk3gJXOqRT">
    <mxGraphModel>
      <root>
        <mxCell id="0" />
        <mxCell id="1" parent="0" />
      </root>
    </mxGraphModel>
  </diagram>
</mxfile>
